<svg xmlns="http://www.w3.org/2000/svg" width="1200" height="300" viewBox="0 0 1200 300" role="img" aria-labelledby="title desc">
  <title id="title">OPH simulated and simulating closure loop</title>
  <desc id="desc">Observer Patch Holography closure diagram showing the simulated record layer, the simulating readback layer, and the local pixel branch, field width, screen capacity, and horizon closure as closure coordinates.</desc>
  <defs>
    <marker id="arrow" markerWidth="12" markerHeight="12" refX="9" refY="6" orient="auto" markerUnits="strokeWidth">
      <path d="M2,2 L10,6 L2,10 Z" fill="#0b6b78"/>
    </marker>
    <filter id="softShadow" x="-5%" y="-5%" width="110%" height="110%">
      <feDropShadow dx="0" dy="2" stdDeviation="2.2" flood-color="#b7cdd4" flood-opacity="0.55"/>
    </filter>
    <style>
      .bg { fill: #f3f8fa; stroke: #a8ccd6; stroke-width: 2; }
      .panel { fill: #ffffff; stroke: #a8ccd6; stroke-width: 2; filter: url(#softShadow); }
      .ink { fill: #071014; font-family: "Helvetica Neue", Arial, sans-serif; }
      .muted { fill: #506171; font-family: "Helvetica Neue", Arial, sans-serif; }
      .cyan { fill: #075d6c; font-family: "Helvetica Neue", Arial, sans-serif; font-weight: 700; }
      .math { fill: #071014; font-family: "Times New Roman", Times, serif; font-style: italic; }
      .line { fill: none; stroke: #0b6b78; stroke-width: 5; stroke-linecap: round; marker-end: url(#arrow); }
      .thin { fill: none; stroke: #7aaebb; stroke-width: 2.2; stroke-linecap: round; }
      .tag { fill: #e9f3f6; stroke: #a8ccd6; stroke-width: 1.4; }
    </style>
  </defs>

  <rect x="10" y="10" width="1180" height="280" rx="18" class="bg"/>

  <rect x="58" y="76" width="330" height="136" rx="14" class="panel"/>
  <text x="84" y="110" class="cyan" font-size="22">Simulated universe</text>
  <text x="84" y="138" class="ink" font-size="19">observer record layer</text>
  <text x="84" y="165" class="muted" font-size="16">experience = local readout</text>
  <text x="84" y="193" class="math" font-size="21">U<tspan baseline-shift="-30%" font-size="14">OPH</tspan> in Fix(T)</text>

  <rect x="812" y="76" width="330" height="136" rx="14" class="panel"/>
  <text x="838" y="110" class="cyan" font-size="22">Simulating universe</text>
  <text x="838" y="138" class="ink" font-size="19">readback rule</text>
  <text x="838" y="165" class="muted" font-size="16">repair into shared reality</text>
  <text x="838" y="193" class="math" font-size="21">T(U<tspan baseline-shift="-30%" font-size="14">OPH</tspan>) = U<tspan baseline-shift="-30%" font-size="14">OPH</tspan></text>

  <path d="M392,96 C500,24 700,24 808,96" class="line"/>
  <path d="M808,192 C700,266 500,266 392,192" class="line"/>
  <path d="M430,72 C520,50 680,50 770,72" class="thin"/>
  <path d="M770,214 C680,240 520,240 430,214" class="thin"/>

  <rect x="414" y="34" width="196" height="54" rx="12" class="tag"/>
  <text x="436" y="62" class="math" font-size="25">P<tspan baseline-shift="-30%" font-size="14">src</tspan></text>
  <text x="482" y="55" class="muted" font-size="15">pixel branch</text>
  <text x="482" y="75" class="muted" font-size="13">local identity</text>

  <rect x="626" y="34" width="196" height="54" rx="12" class="tag"/>
  <text x="646" y="62" class="math" font-size="25">α<tspan baseline-shift="-30%" font-size="14">em</tspan></text>
  <text x="700" y="55" class="muted" font-size="15">fine-structure</text>
  <text x="700" y="75" class="muted" font-size="13">field-width closure</text>

  <rect x="414" y="212" width="196" height="54" rx="12" class="tag"/>
  <text x="436" y="242" class="math" font-size="25">N*</text>
  <text x="482" y="235" class="muted" font-size="15">screen capacity</text>
  <text x="482" y="255" class="muted" font-size="13">global record budget</text>

  <rect x="626" y="212" width="196" height="54" rx="12" class="tag"/>
  <text x="646" y="242" class="math" font-size="25">Λ<tspan baseline-shift="-30%" font-size="14">CRC</tspan></text>
  <text x="700" y="235" class="muted" font-size="15">cosmological</text>
  <text x="700" y="255" class="muted" font-size="13">horizon closure</text>

  <text x="454" y="130" class="cyan" font-size="24">strange loop closure</text>
  <text x="454" y="158" class="ink" font-size="17">Psrc, α close one pixel</text>
  <text x="454" y="184" class="muted" font-size="16">N, Λ close the horizon</text>
</svg>
